<?xml version="1.0" standalone="no"?>
<!DOCTYPE svg PUBLIC "-//W3C//DTD SVG 20010904//EN"
 "http://www.w3.org/TR/2001/REC-SVG-20010904/DTD/svg10.dtd">
<svg version="1.0" xmlns="http://www.w3.org/2000/svg"
 width="951.000000pt" height="951.000000pt" viewBox="0 0 951.000000 951.000000"
 preserveAspectRatio="xMidYMid meet">
<metadata>
Created by potrace 1.14, written by Peter Selinger 2001-2017
</metadata>
<g transform="translate(0.000000,951.000000) scale(0.100000,-0.100000)"
fill="#000000" stroke="none">
<path d="M4613 8482 c-6 -4 -213 -356 -458 -782 -246 -426 -462 -801 -481
-832 l-33 -58 658 0 658 0 99 170 c54 94 102 170 105 170 4 0 51 -76 105 -170
l98 -170 212 0 212 0 -480 833 c-264 457 -486 835 -492 839 -14 10 -188 10
-203 0z m226 -761 l112 -194 -171 -293 -172 -294 -229 0 c-133 0 -229 4 -229
9 0 7 477 841 557 974 8 13 10 9 132 -202z"/>
<path d="M2478 6600 c-1 -5 -2 -136 0 -290 l3 -280 566 -2 566 -3 -64 -93
c-35 -50 -176 -252 -314 -447 -137 -195 -370 -527 -518 -736 l-267 -381 2
-222 3 -221 1045 0 1045 0 3 288 2 287 -582 0 c-321 0 -589 4 -597 9 -11 7
121 200 568 832 l581 824 0 223 0 222 -1019 0 c-666 0 -1020 -3 -1023 -10z"/>
<path d="M4662 5268 l3 -1343 360 0 360 0 5 449 5 450 105 63 105 63 15 -22
c8 -12 55 -98 103 -192 48 -94 127 -245 174 -336 47 -91 120 -230 161 -310 41
-80 79 -151 85 -157 13 -18 807 -19 807 -1 0 6 -68 133 -152 282 -220 393
-409 731 -547 976 -118 210 -120 215 -104 240 19 30 536 764 705 1001 65 91
118 169 118 173 0 3 -177 6 -394 6 l-395 0 -293 -427 c-161 -236 -335 -492
-387 -570 -52 -78 -98 -140 -103 -137 -4 3 -8 259 -8 570 l0 564 -365 0 -365
0 2 -1342z"/>
<path d="M1400 2927 l-845 -1462 -3 -92 -3 -93 4166 0 4165 0 0 86 0 87 -831
1440 c-457 792 -840 1454 -850 1471 -19 31 -19 29 -19 -301 0 -289 -2 -333
-15 -333 -8 0 -15 -3 -15 -7 1 -5 83 -150 184 -323 l182 -315 -205 -3 c-188
-2 -207 -1 -219 15 -8 10 -95 156 -194 326 l-180 307 -2234 0 -2234 0 -2 329
-3 329 -845 -1461z m5154 364 c64 -110 116 -202 116 -205 0 -3 -964 -6 -2142
-6 l-2143 0 -224 -385 -225 -385 -233 0 c-128 0 -233 3 -233 6 0 8 636 1110
662 1147 l19 27 2144 0 2143 0 116 -199z m1456 -1058 c151 -262 290 -503 308
-535 l33 -58 -204 0 -203 0 -196 333 -196 332 -2596 5 -2595 5 73 125 c40 69
92 158 115 198 l42 72 2572 0 2572 0 275 -477z m-579 -441 l87 -147 -3216 -3
c-1768 -1 -3217 0 -3219 2 -3 3 108 202 153 274 l14 22 3048 -1 3047 0 86
-147z"/>
</g>
</svg>
